<svg width="10" height="10" viewBox="0 0 10 10" fill="none" xmlns="http://www.w3.org/2000/svg">
<path d="M0.80764 0.807488C0.865697 0.749284 0.934667 0.703105 1.0106 0.671597C1.08653 0.640089 1.16793 0.623871 1.25014 0.623871C1.33235 0.623871 1.41375 0.640089 1.48968 0.671597C1.56561 0.703105 1.63458 0.749284 1.69264 0.807488L5.00014 4.11624L8.30764 0.807488C8.36575 0.749378 8.43474 0.703282 8.51066 0.671834C8.58659 0.640385 8.66796 0.624198 8.75014 0.624198C8.83232 0.624198 8.9137 0.640385 8.98962 0.671834C9.06554 0.703282 9.13453 0.749378 9.19264 0.807488C9.25075 0.865598 9.29685 0.934584 9.32829 1.01051C9.35974 1.08643 9.37593 1.16781 9.37593 1.24999C9.37593 1.33217 9.35974 1.41354 9.32829 1.48947C9.29685 1.56539 9.25075 1.63438 9.19264 1.69249L5.88389 4.99999L9.19264 8.30749C9.25075 8.3656 9.29685 8.43458 9.32829 8.51051C9.35974 8.58643 9.37593 8.66781 9.37593 8.74999C9.37593 8.83217 9.35974 8.91354 9.32829 8.98947C9.29685 9.06539 9.25075 9.13438 9.19264 9.19249C9.13453 9.2506 9.06554 9.29669 8.98962 9.32814C8.9137 9.35959 8.83232 9.37578 8.75014 9.37578C8.66796 9.37578 8.58659 9.35959 8.51066 9.32814C8.43474 9.29669 8.36575 9.2506 8.30764 9.19249L5.00014 5.88374L1.69264 9.19249C1.63453 9.2506 1.56554 9.29669 1.48962 9.32814C1.4137 9.35959 1.33232 9.37578 1.25014 9.37578C1.16796 9.37578 1.08659 9.35959 1.01066 9.32814C0.934737 9.29669 0.86575 9.2506 0.80764 9.19249C0.74953 9.13438 0.703435 9.06539 0.671986 8.98947C0.640537 8.91354 0.624351 8.83217 0.624351 8.74999C0.624351 8.66781 0.640537 8.58643 0.671986 8.51051C0.703435 8.43458 0.74953 8.3656 0.80764 8.30749L4.11639 4.99999L0.80764 1.69249C0.749436 1.63443 0.703258 1.56546 0.671749 1.48953C0.640241 1.4136 0.624023 1.3322 0.624023 1.24999C0.624023 1.16778 0.640241 1.08638 0.671749 1.01045C0.703258 0.934514 0.749436 0.865545 0.80764 0.807488Z" fill="#5C3D02"/>
</svg>
