<svg width="181" height="70" viewBox="0 0 181 70" fill="none" xmlns="http://www.w3.org/2000/svg">
<g clip-path="url(#clip0_68_2)">
<path d="M34.386 35L58.7005 10.6854C45.2716 -2.74351 23.5004 -2.74351 10.0714 10.6854C-3.35754 24.1144 -3.35754 45.8856 10.0714 59.3146C23.5004 72.7435 45.2716 72.7435 58.7005 59.3146L34.386 35Z" fill="#FFC958"/>
<path d="M34.386 35L55.2275 14.1584C43.7168 2.64772 25.0551 2.64772 13.5456 14.1584C2.03615 25.6691 2.03492 44.3309 13.5456 55.8404C25.0563 67.3498 43.7181 67.3511 55.2275 55.8404L34.386 35Z" fill="#FAF8D2"/>
<path d="M41.3061 34.7261L62.3491 53.4211C72.5507 44.7546 72.5507 26.2746 62.3491 17.6081C62.2288 17.5061 62.1035 17.4116 61.9819 17.3121L41.3061 34.7261Z" fill="#FFC958"/>
<path d="M41.3061 34.7261L58.8749 50.47C67.1582 43.4332 67.1582 27.596 58.8749 20.5591C58.7546 20.4572 58.6207 20.3712 58.4991 20.2705L41.3061 34.7261Z" fill="#FAF8D2"/>
<path d="M57.7193 43.5965C59.754 43.5965 61.4035 41.947 61.4035 39.9123C61.4035 37.8775 59.754 36.2281 57.7193 36.2281C55.6846 36.2281 54.0351 37.8775 54.0351 39.9123C54.0351 41.947 55.6846 43.5965 57.7193 43.5965Z" fill="#D79C8C"/>
<path d="M57.7193 44.8246C55.0102 44.8246 52.807 42.6214 52.807 39.9123C52.807 37.2032 55.0102 35 57.7193 35C60.4284 35 62.6316 37.2032 62.6316 39.9123C62.6316 42.6214 60.4284 44.8246 57.7193 44.8246ZM57.7193 37.4561C56.3647 37.4561 55.2632 38.5577 55.2632 39.9123C55.2632 41.2668 56.3647 42.3684 57.7193 42.3684C59.0739 42.3684 60.1754 41.2668 60.1754 39.9123C60.1754 38.5577 59.0739 37.4561 57.7193 37.4561Z" fill="#CD6E61"/>
<path d="M39.2982 57.1053C41.333 57.1053 42.9825 55.4558 42.9825 53.4211C42.9825 51.3863 41.333 49.7368 39.2982 49.7368C37.2635 49.7368 35.614 51.3863 35.614 53.4211C35.614 55.4558 37.2635 57.1053 39.2982 57.1053Z" fill="#D79C8C"/>
<path d="M39.2982 58.3333C36.5891 58.3333 34.386 56.1302 34.386 53.4211C34.386 50.7119 36.5891 48.5088 39.2982 48.5088C42.0074 48.5088 44.2105 50.7119 44.2105 53.4211C44.2105 56.1302 42.0074 58.3333 39.2982 58.3333ZM39.2982 50.9649C37.9437 50.9649 36.8421 52.0665 36.8421 53.4211C36.8421 54.7756 37.9437 55.8772 39.2982 55.8772C40.6528 55.8772 41.7544 54.7756 41.7544 53.4211C41.7544 52.0665 40.6528 50.9649 39.2982 50.9649Z" fill="#CD6E61"/>
<path d="M22.1053 53.4211C24.14 53.4211 25.7895 51.7716 25.7895 49.7368C25.7895 47.7021 24.14 46.0526 22.1053 46.0526C20.0705 46.0526 18.4211 47.7021 18.4211 49.7368C18.4211 51.7716 20.0705 53.4211 22.1053 53.4211Z" fill="#D79C8C"/>
<path d="M22.1053 54.6491C19.3961 54.6491 17.193 52.446 17.193 49.7368C17.193 47.0277 19.3961 44.8246 22.1053 44.8246C24.8144 44.8246 27.0175 47.0277 27.0175 49.7368C27.0175 52.446 24.8144 54.6491 22.1053 54.6491ZM22.1053 47.2807C20.7507 47.2807 19.6491 48.3823 19.6491 49.7368C19.6491 51.0914 20.7507 52.193 22.1053 52.193C23.4598 52.193 24.5614 51.0914 24.5614 49.7368C24.5614 48.3823 23.4598 47.2807 22.1053 47.2807Z" fill="#CD6E61"/>
<path d="M13.5088 39.9123C15.5435 39.9123 17.193 38.2628 17.193 36.2281C17.193 34.1933 15.5435 32.5439 13.5088 32.5439C11.474 32.5439 9.82457 34.1933 9.82457 36.2281C9.82457 38.2628 11.474 39.9123 13.5088 39.9123Z" fill="#D79C8C"/>
<path d="M13.5088 41.1404C10.7997 41.1404 8.5965 38.9372 8.5965 36.2281C8.5965 33.5189 10.7997 31.3158 13.5088 31.3158C16.2179 31.3158 18.4211 33.5189 18.4211 36.2281C18.4211 38.9372 16.2179 41.1404 13.5088 41.1404ZM13.5088 33.7719C12.1542 33.7719 11.0526 34.8735 11.0526 36.2281C11.0526 37.5826 12.1542 38.6842 13.5088 38.6842C14.8633 38.6842 15.9649 37.5826 15.9649 36.2281C15.9649 34.8735 14.8633 33.7719 13.5088 33.7719Z" fill="#CD6E61"/>
<path d="M18.4211 23.9474C20.4558 23.9474 22.1053 22.2979 22.1053 20.2632C22.1053 18.2284 20.4558 16.5789 18.4211 16.5789C16.3863 16.5789 14.7368 18.2284 14.7368 20.2632C14.7368 22.2979 16.3863 23.9474 18.4211 23.9474Z" fill="#D79C8C"/>
<path d="M18.4211 25.1754C15.7119 25.1754 13.5088 22.9723 13.5088 20.2632C13.5088 17.554 15.7119 15.3509 18.4211 15.3509C21.1302 15.3509 23.3333 17.554 23.3333 20.2632C23.3333 22.9723 21.1302 25.1754 18.4211 25.1754ZM18.4211 17.807C17.0665 17.807 15.9649 18.9086 15.9649 20.2632C15.9649 21.6177 17.0665 22.7193 18.4211 22.7193C19.7756 22.7193 20.8772 21.6177 20.8772 20.2632C20.8772 18.9086 19.7756 17.807 18.4211 17.807Z" fill="#CD6E61"/>
<path d="M33.1579 17.807C35.1926 17.807 36.8421 16.1575 36.8421 14.1228C36.8421 12.0881 35.1926 10.4386 33.1579 10.4386C31.1232 10.4386 29.4737 12.0881 29.4737 14.1228C29.4737 16.1575 31.1232 17.807 33.1579 17.807Z" fill="#D79C8C"/>
<path d="M33.1579 19.0351C30.4488 19.0351 28.2456 16.8319 28.2456 14.1228C28.2456 11.4137 30.4488 9.21053 33.1579 9.21053C35.867 9.21053 38.0702 11.4137 38.0702 14.1228C38.0702 16.8319 35.867 19.0351 33.1579 19.0351ZM33.1579 11.6667C31.8033 11.6667 30.7018 12.7682 30.7018 14.1228C30.7018 15.4774 31.8033 16.5789 33.1579 16.5789C34.5125 16.5789 35.614 15.4774 35.614 14.1228C35.614 12.7682 34.5125 11.6667 33.1579 11.6667Z" fill="#CD6E61"/>
<path d="M57.7193 33.7719C57.0414 33.7719 56.4912 33.223 56.4912 32.5439C56.4912 29.8347 58.6944 27.6316 61.4035 27.6316C62.0814 27.6316 62.6316 28.1805 62.6316 28.8596C62.6316 29.5388 62.0814 30.0877 61.4035 30.0877C60.049 30.0877 58.9474 31.1893 58.9474 32.5439C58.9474 33.223 58.3972 33.7719 57.7193 33.7719Z" fill="#CD6E61"/>
<path d="M18.421 31.3158C17.7432 31.3158 17.193 30.7668 17.193 30.0877C17.193 27.3786 19.3961 25.1754 22.1053 25.1754C22.7832 25.1754 23.3333 25.7244 23.3333 26.4035C23.3333 27.0826 22.7832 27.6316 22.1053 27.6316C20.7507 27.6316 19.6491 28.7332 19.6491 30.0877C19.6491 30.7668 19.0989 31.3158 18.421 31.3158Z" fill="#A4E869"/>
<path d="M30.5225 60.2884C30.2768 60.2884 30.0288 60.2147 29.8126 60.0612C29.2588 59.6695 29.1286 58.9032 29.5216 58.3481C30.3051 57.244 30.0447 55.7077 28.9395 54.923C28.3868 54.5312 28.2567 53.7637 28.6497 53.2098C29.0426 52.656 29.809 52.5258 30.3628 52.92C32.5709 54.4883 33.0928 57.5609 31.5246 59.7702C31.2863 60.1079 30.9068 60.2884 30.5225 60.2884Z" fill="#ED7161"/>
<path d="M28.2456 31.3158C27.5677 31.3158 27.0175 30.7668 27.0175 30.0877C27.0175 28.5649 28.2567 27.3246 29.7807 27.3246C29.9502 27.3246 30.0877 27.187 30.0877 27.0175C30.0877 25.4947 31.3268 24.2544 32.8509 24.2544C33.0204 24.2544 33.1579 24.1168 33.1579 23.9474C33.1579 23.2682 33.7081 22.7193 34.386 22.7193C35.0639 22.7193 35.614 23.2682 35.614 23.9474C35.614 25.4702 34.3749 26.7105 32.8509 26.7105C32.6814 26.7105 32.5439 26.8481 32.5439 27.0175C32.5439 28.5403 31.3047 29.7807 29.7807 29.7807C29.6112 29.7807 29.4737 29.9182 29.4737 30.0877C29.4737 30.7668 28.9235 31.3158 28.2456 31.3158Z" fill="#F9D70B"/>
<path d="M29.8347 40.6454C29.5904 40.6454 29.346 40.6135 29.104 40.5472C28.3918 40.3532 27.7986 39.8926 27.4314 39.2504C27.3467 39.1042 27.16 39.0514 27.0126 39.1361C25.69 39.8926 23.999 39.4309 23.2425 38.1082C23.1897 38.0161 23.1123 37.9793 23.057 37.9633C23.0018 37.9474 22.9158 37.94 22.8237 37.9928C22.2342 38.3305 21.4851 38.1254 21.1486 37.536C20.8121 36.9477 21.0172 36.1961 21.6054 35.8609C22.2465 35.4949 22.9907 35.3991 23.703 35.5932C24.4153 35.7872 25.0084 36.2477 25.3756 36.89C25.4591 37.0349 25.647 37.0865 25.7944 37.0042C27.1158 36.2453 28.8081 36.7095 29.5646 38.0321C29.6174 38.1242 29.6947 38.1611 29.75 38.177C29.8053 38.1918 29.8925 38.2004 29.9833 38.1475C30.5753 37.8111 31.3232 38.0174 31.6584 38.6044C31.9949 39.1926 31.7898 39.9442 31.2016 40.2795C30.7779 40.5214 30.31 40.6454 29.8347 40.6454Z" fill="#659C35"/>
<path d="M30.0275 49.5354C29.944 49.5354 29.8593 49.5268 29.7733 49.5096C29.109 49.3709 28.684 48.7188 28.824 48.0544C28.9763 47.3323 29.4 46.7121 30.0177 46.3093C30.6354 45.9053 31.3747 45.764 32.0968 45.92C32.2025 45.9433 32.2798 45.9089 32.3277 45.877C32.3768 45.8463 32.4382 45.7861 32.4604 45.683C32.6126 44.9609 33.0363 44.3407 33.6553 43.9379C34.2718 43.5351 35.0111 43.3951 35.7344 43.5498C35.894 43.583 36.0623 43.4774 36.0979 43.3128C36.2379 42.6497 36.8888 42.2284 37.5532 42.3647C38.2163 42.5047 38.6412 43.1568 38.5012 43.82C38.1881 45.3096 36.7181 46.2663 35.2284 45.9544C35.1253 45.9335 35.0454 45.9654 34.9963 45.9974C34.9484 46.0281 34.8858 46.087 34.8649 46.1902C34.7126 46.9135 34.289 47.5337 33.67 47.9365C33.0523 48.3405 32.3105 48.4768 31.5909 48.3246C31.489 48.3025 31.4091 48.3356 31.36 48.3675C31.3109 48.3982 31.2495 48.4584 31.2274 48.5616C31.1058 49.1388 30.5961 49.5354 30.0275 49.5354Z" fill="#659C35"/>
<path d="M47.8947 16.5789C45.8598 16.5789 44.2105 18.2282 44.2105 20.2632C44.2105 21.5956 44.9253 22.7537 45.9863 23.3996L51.0325 18.3535C50.3853 17.2937 49.2272 16.5789 47.8947 16.5789Z" fill="#CD6E61"/>
<path d="M52.807 30.0877C54.8419 30.0877 56.4912 28.4384 56.4912 26.4035C56.4912 25.1251 55.8391 24.0002 54.8505 23.3395L49.4397 27.8882C50.0107 29.1814 51.3014 30.0877 52.807 30.0877Z" fill="#CD6E61"/>
</g>
<path d="M89.4609 17.2422C90.8099 17.2422 91.9766 17.4701 92.9609 17.9258C93.9635 18.3633 94.7383 18.9648 95.2852 19.7305C95.832 20.4961 96.1055 21.3802 96.1055 22.3828C96.1055 23.276 95.8503 24.0964 95.3398 24.8438C94.8294 25.5729 94.1914 26.1198 93.4258 26.4844C93.9727 26.5938 94.5104 26.8216 95.0391 27.168C95.5677 27.5143 96.0052 27.9883 96.3516 28.5898C96.7161 29.1914 96.8984 29.9388 96.8984 30.832C96.8984 31.8529 96.6068 32.7734 96.0234 33.5938C95.4401 34.4141 94.6016 35.0703 93.5078 35.5625C92.4323 36.0365 91.1562 36.2734 89.6797 36.2734C88.5495 36.2734 87.3646 36.2005 86.125 36.0547C84.9036 35.9271 83.8646 35.7721 83.0078 35.5898V17.9258C83.9557 17.707 84.9857 17.543 86.0977 17.4336C87.2279 17.306 88.349 17.2422 89.4609 17.2422ZM89.2969 19.5664C88.5312 19.5664 87.8385 19.5938 87.2188 19.6484C86.6172 19.7031 86.0339 19.7852 85.4688 19.8945V25.6367H89.7617C91.0013 25.6367 91.9492 25.3268 92.6055 24.707C93.2617 24.069 93.5898 23.3307 93.5898 22.4922C93.5898 21.8359 93.3893 21.2982 92.9883 20.8789C92.5872 20.4414 92.0586 20.1133 91.4023 19.8945C90.7643 19.6758 90.0625 19.5664 89.2969 19.5664ZM85.4688 33.6211C86.125 33.7487 86.8542 33.8398 87.6562 33.8945C88.4583 33.931 89.1146 33.9492 89.625 33.9492C90.9922 33.9492 92.1224 33.6667 93.0156 33.1016C93.9271 32.5365 94.3828 31.7799 94.3828 30.832C94.3828 29.8294 93.9362 29.082 93.043 28.5898C92.168 28.0794 91.0924 27.8242 89.8164 27.8242H85.4688V33.6211ZM106.688 22.0547C107.471 22.0547 108.264 22.2461 109.066 22.6289C109.887 22.9935 110.589 23.5039 111.172 24.1602V22.3281H113.414V36H111.172V33.6758C110.698 34.4049 110.051 35.043 109.23 35.5898C108.428 36.1367 107.508 36.4102 106.469 36.4102C105.302 36.4102 104.236 36.1185 103.27 35.5352C102.303 34.9336 101.529 34.1042 100.945 33.0469C100.38 31.9896 100.098 30.7682 100.098 29.3828C100.098 27.8698 100.38 26.5664 100.945 25.4727C101.529 24.3789 102.322 23.5404 103.324 22.957C104.327 22.3555 105.448 22.0547 106.688 22.0547ZM107.098 24.2422C106.113 24.2422 105.275 24.4883 104.582 24.9805C103.889 25.4727 103.352 26.1107 102.969 26.8945C102.604 27.6602 102.422 28.4896 102.422 29.3828C102.422 30.2578 102.604 31.069 102.969 31.8164C103.333 32.5456 103.844 33.1289 104.5 33.5664C105.174 34.0039 105.949 34.2227 106.824 34.2227C107.663 34.2227 108.41 34.0039 109.066 33.5664C109.723 33.1289 110.242 32.5273 110.625 31.7617C111.008 30.9779 111.19 30.1029 111.172 29.1367L111.145 26.5117C110.579 25.8008 109.969 25.2448 109.312 24.8438C108.674 24.4427 107.936 24.2422 107.098 24.2422ZM120.305 22.3281V25.0625C120.833 24.151 121.471 23.4219 122.219 22.875C122.966 22.3281 123.732 22.0547 124.516 22.0547C125.044 22.0547 125.518 22.1458 125.938 22.3281V24.9258C125.354 24.5794 124.771 24.4062 124.188 24.4062C123.258 24.4062 122.501 24.7344 121.918 25.3906C121.353 26.0469 120.815 26.8307 120.305 27.7422V36H118.062V22.3281H120.305ZM134.441 22.0547C135.225 22.0547 136.018 22.2461 136.82 22.6289C137.641 22.9935 138.342 23.5039 138.926 24.1602V22.3281H141.168V36H138.926V33.6758C138.452 34.4049 137.805 35.043 136.984 35.5898C136.182 36.1367 135.262 36.4102 134.223 36.4102C133.056 36.4102 131.99 36.1185 131.023 35.5352C130.057 34.9336 129.283 34.1042 128.699 33.0469C128.134 31.9896 127.852 30.7682 127.852 29.3828C127.852 27.8698 128.134 26.5664 128.699 25.4727C129.283 24.3789 130.076 23.5404 131.078 22.957C132.081 22.3555 133.202 22.0547 134.441 22.0547ZM134.852 24.2422C133.867 24.2422 133.029 24.4883 132.336 24.9805C131.643 25.4727 131.105 26.1107 130.723 26.8945C130.358 27.6602 130.176 28.4896 130.176 29.3828C130.176 30.2578 130.358 31.069 130.723 31.8164C131.087 32.5456 131.598 33.1289 132.254 33.5664C132.928 34.0039 133.703 34.2227 134.578 34.2227C135.417 34.2227 136.164 34.0039 136.82 33.5664C137.477 33.1289 137.996 32.5273 138.379 31.7617C138.762 30.9779 138.944 30.1029 138.926 29.1367L138.898 26.5117C138.333 25.8008 137.723 25.2448 137.066 24.8438C136.428 24.4427 135.69 24.2422 134.852 24.2422ZM149.59 18.3906V22.3281H153.582V24.4336H149.59V32.4453C149.59 33.0104 149.736 33.457 150.027 33.7852C150.319 34.1133 150.766 34.2773 151.367 34.2773C151.914 34.2773 152.37 34.2135 152.734 34.0859C153.099 33.9401 153.418 33.7852 153.691 33.6211V35.4531C153.327 35.7448 152.935 35.9727 152.516 36.1367C152.115 36.319 151.568 36.4102 150.875 36.4102C149.708 36.4102 148.824 36.0638 148.223 35.3711C147.639 34.6602 147.348 33.7214 147.348 32.5547V24.4336H144.723V23.7773C145.616 23.3763 146.363 22.7201 146.965 21.8086C147.566 20.8789 148.095 19.7396 148.551 18.3906H149.59ZM159.844 15.7656C160.372 15.7656 160.81 15.957 161.156 16.3398C161.521 16.7044 161.703 17.1328 161.703 17.625C161.703 18.099 161.521 18.5273 161.156 18.9102C160.81 19.293 160.372 19.4844 159.844 19.4844C159.315 19.4844 158.868 19.293 158.504 18.9102C158.158 18.5273 157.984 18.099 157.984 17.625C157.984 17.1328 158.158 16.7044 158.504 16.3398C158.868 15.957 159.315 15.7656 159.844 15.7656ZM161.238 22.3281V36H158.996V24.4336H156.836V22.3281H161.238ZM171.711 22.0547C173.115 22.0547 174.281 22.3464 175.211 22.9297C176.141 23.513 176.833 24.306 177.289 25.3086C177.763 26.3112 178 27.4414 178 28.6992V30.0391H167.5C167.609 30.8047 167.874 31.5065 168.293 32.1445C168.712 32.7826 169.259 33.293 169.934 33.6758C170.608 34.0404 171.383 34.2227 172.258 34.2227C173.242 34.2227 174.163 33.9766 175.02 33.4844C175.876 32.974 176.596 32.418 177.18 31.8164L177.152 34.25C176.897 34.5599 176.514 34.888 176.004 35.2344C175.512 35.5625 174.938 35.8359 174.281 36.0547C173.643 36.2917 172.969 36.4102 172.258 36.4102C170.872 36.4102 169.642 36.082 168.566 35.4258C167.491 34.7695 166.643 33.9036 166.023 32.8281C165.422 31.7344 165.121 30.5404 165.121 29.2461C165.121 27.9518 165.404 26.7578 165.969 25.6641C166.534 24.5703 167.309 23.6953 168.293 23.0391C169.296 22.3828 170.435 22.0547 171.711 22.0547ZM171.711 24.2422C170.581 24.2422 169.651 24.625 168.922 25.3906C168.193 26.138 167.737 27.0495 167.555 28.125H175.785C175.694 27.2318 175.439 26.5026 175.02 25.9375C174.618 25.3724 174.126 24.9531 173.543 24.6797C172.96 24.388 172.349 24.2422 171.711 24.2422Z" fill="white"/>
<path d="M92.7188 43.2969C93.4531 43.2969 94.1719 43.4219 94.875 43.6719C95.5781 43.9219 96.2109 44.2891 96.7734 44.7734C97.3516 45.2578 97.8047 45.8438 98.1328 46.5312C98.4766 47.2031 98.6484 47.9766 98.6484 48.8516C98.6484 49.9141 98.375 50.8594 97.8281 51.6875C97.2969 52.5 96.5859 53.1406 95.6953 53.6094C94.8047 54.0781 93.8359 54.3125 92.7891 54.3125C92.0859 54.3125 91.4531 54.2422 90.8906 54.1016C90.3281 53.9609 89.8594 53.7969 89.4844 53.6094V59H86.2266V43.2969H92.7188ZM89.4844 46.3438V50.9844C89.8281 51.125 90.2422 51.25 90.7266 51.3594C91.2266 51.4531 91.7344 51.5 92.25 51.5C93.1875 51.5 93.9297 51.2422 94.4766 50.7266C95.0391 50.1953 95.3203 49.5703 95.3203 48.8516C95.3203 48.0234 95.0078 47.3984 94.3828 46.9766C93.7578 46.5547 93.0234 46.3438 92.1797 46.3438H89.4844ZM110.367 56.0703V59H101.812V56.0703H104.461V46.2266H101.812V43.2969H110.367V46.2266H107.719V56.0703H110.367ZM127.289 43.2969V44.1406L119.227 56.0703H127.289V59H114.094V58.1562L122.016 46.2266H114.609V43.2969H127.289ZM143.484 43.2969V44.1406L135.422 56.0703H143.484V59H130.289V58.1562L138.211 46.2266H130.805V43.2969H143.484ZM154.148 43.1797L161.461 59H157.641L156.445 56.0703H150.234L149.039 59H145.219L152.531 43.1797H154.148ZM153.352 48.5L151.383 53.3047H155.32L153.352 48.5ZM168.328 42.9922C169.234 42.9922 170.062 43.1172 170.812 43.3672C171.562 43.6172 172.195 43.9062 172.711 44.2344V47.4453C172.148 47.1016 171.547 46.7812 170.906 46.4844C170.266 46.1875 169.539 46.0391 168.727 46.0391C168.32 46.0391 167.914 46.1016 167.508 46.2266C167.117 46.3516 166.789 46.5391 166.523 46.7891C166.273 47.0391 166.148 47.3594 166.148 47.75C166.148 48.2656 166.375 48.6562 166.828 48.9219C167.281 49.1875 167.836 49.4531 168.492 49.7188L170.414 50.5156C171.508 50.9844 172.312 51.5547 172.828 52.2266C173.344 52.8984 173.602 53.6641 173.602 54.5234C173.602 55.4609 173.328 56.2891 172.781 57.0078C172.25 57.7109 171.531 58.2656 170.625 58.6719C169.734 59.0781 168.742 59.2812 167.648 59.2812C166.727 59.2812 165.844 59.125 165 58.8125C164.156 58.5 163.422 58.1172 162.797 57.6641V54.4531C163.484 54.9531 164.242 55.375 165.07 55.7188C165.898 56.0625 166.781 56.2344 167.719 56.2344C168.375 56.2344 168.938 56.1094 169.406 55.8594C169.875 55.5938 170.109 55.2031 170.109 54.6875C170.109 54.2812 169.914 53.9531 169.523 53.7031C169.148 53.4375 168.734 53.2188 168.281 53.0469L165.867 52.1094C164.648 51.6406 163.82 51.0312 163.383 50.2812C162.961 49.5156 162.75 48.6719 162.75 47.75C162.75 46.7969 163.008 45.9688 163.523 45.2656C164.055 44.5469 164.742 43.9922 165.586 43.6016C166.43 43.1953 167.344 42.9922 168.328 42.9922Z" fill="#FFC958"/>
<defs>
<clipPath id="clip0_68_2">
<rect width="70" height="70" fill="white"/>
</clipPath>
</defs>
</svg>
