<svg width="40" height="40" viewBox="0 0 40 40" fill="none" xmlns="http://www.w3.org/2000/svg">
<g clip-path="url(#clip0_8_55)">
<path d="M29.3821 25.5913C28.5321 25.1059 27.6507 24.9526 26.9014 25.1606C26.3387 25.3166 25.88 25.6726 25.5713 26.1913C24.8906 27.0053 24.0465 27.9554 23.8432 28.1027C22.2625 29.1721 21.0084 29.0454 19.6463 27.6834L11.9886 20.0257C10.6252 18.6623 10.4999 17.4069 11.5679 15.8308C11.7173 15.6241 12.6673 14.7807 13.4807 14.1007C13.9994 13.7914 14.3554 13.3333 14.5114 12.77C14.7187 12.0213 14.5654 11.1406 14.076 10.2825C13.9607 10.0852 11.2166 5.4356 8.68577 4.09754C7.39971 3.41817 5.84896 3.65085 4.82158 4.6789L3.13016 6.37032C-1.80408 11.3052 -0.890706 17.4349 5.77163 24.0965L15.5754 33.901C18.6016 36.9278 21.5337 38.7853 24.2879 39.422C25.0186 39.5906 25.7346 39.6753 26.4373 39.6753C28.9155 39.6753 31.2169 38.6266 33.3017 36.5418L34.9931 34.8504C36.0205 33.823 36.2545 32.2703 35.5745 30.9862C34.2357 28.4561 29.5868 25.7106 29.3821 25.5913ZM34.0504 33.907L32.359 35.5984C27.9801 39.9773 22.6498 39.0899 16.5182 32.9576L6.71434 23.1532C0.582701 17.0222 -0.30601 11.6926 4.07288 7.31237L5.76429 5.62095C6.14165 5.2436 6.63967 5.04625 7.14436 5.04625C7.45571 5.04625 7.77039 5.12092 8.06174 5.2756C10.2579 6.43765 12.8993 10.9119 12.9213 10.9499C13.2207 11.4746 13.3347 12.0219 13.226 12.414C13.1593 12.654 13.0107 12.8366 12.77 12.9713L12.67 13.0407C12.1013 13.5153 10.7479 14.6634 10.4645 15.0814C10.0565 15.6841 9.78583 16.2761 9.64382 16.8582C9.1698 15.9128 8.78711 14.8181 8.66111 13.604C8.62244 13.238 8.29642 12.9773 7.9284 13.0093C7.56238 13.048 7.29637 13.3753 7.3337 13.742C7.81506 18.3776 11.4206 21.3951 11.5732 21.5211C11.5899 21.5351 11.6099 21.5397 11.6273 21.5517L18.7023 28.6268C18.7323 28.6568 18.7629 28.6828 18.7929 28.7114C18.8163 28.7461 18.8316 28.7841 18.8623 28.8148C18.9883 28.9394 21.9984 31.8596 26.5953 32.3369C26.6187 32.3389 26.642 32.3403 26.6647 32.3403C27.002 32.3403 27.2914 32.0849 27.3274 31.7429C27.3654 31.3762 27.0987 31.0489 26.7327 31.0102C25.3226 30.8642 24.0739 30.4509 23.0332 29.9715C23.5438 29.8182 24.0632 29.5635 24.5892 29.2068C25.0073 28.9228 26.1553 27.5707 26.6293 27.002L26.6987 26.9013C26.8333 26.662 27.016 26.5127 27.256 26.4453C27.6461 26.3393 28.1947 26.45 28.7128 26.7453C29.9655 27.48 33.4283 29.7855 34.3937 31.6096C34.7997 32.3736 34.6611 33.2963 34.0504 33.907Z" fill="#FFC958"/>
<path d="M18.2423 0.324683C17.8736 0.324683 17.5756 0.622698 17.5756 0.991383C17.5756 1.36007 17.8736 1.65808 18.2423 1.65808C29.5042 1.65808 38.6666 10.8205 38.6666 22.0824C38.6666 22.4511 38.9646 22.7491 39.3333 22.7491C39.702 22.7491 40 22.4511 40 22.0824C40 10.0852 30.2395 0.324683 18.2423 0.324683Z" fill="#FFC958"/>
<path d="M18.2423 6.34498C26.92 6.34498 33.979 13.4047 33.979 22.0818C33.979 22.4505 34.2771 22.7485 34.6457 22.7485C35.0144 22.7485 35.3124 22.4505 35.3124 22.0818C35.3124 12.6693 27.6547 5.01158 18.2423 5.01158C17.8736 5.01158 17.5756 5.3096 17.5756 5.67828C17.5756 6.04697 17.8736 6.34498 18.2423 6.34498Z" fill="#FFC958"/>
<path d="M18.2423 11.0319C24.3359 11.0319 29.2928 15.9895 29.2928 22.0824C29.2928 22.4511 29.5908 22.7491 29.9595 22.7491C30.3282 22.7491 30.6262 22.4511 30.6262 22.0824C30.6262 15.2541 25.0706 9.69848 18.2423 9.69848C17.8736 9.69848 17.5756 9.9965 17.5756 10.3652C17.5756 10.7339 17.8736 11.0319 18.2423 11.0319Z" fill="#FFC958"/>
</g>
<defs>
<clipPath id="clip0_8_55">
<rect width="40" height="40" fill="white"/>
</clipPath>
</defs>
</svg>
